# Blender v2.70 (sub 0) OBJ File: 'agdg.blend'
# www.blender.org
v -4.000000 4.000000 -1.459133
v -4.000000 -4.000000 -1.459133
v 4.000000 4.000000 -1.459133
v 4.000000 -4.000000 -1.459133
vt 0.750000 0.753906
vt 0.750000 1.000000
vt 0.503906 1.000000
vt 0.503906 0.753906
vn 0.000000 0.000000 1.000000
s off
f 2/1/1 4/2/1 3/3/1
f 1/4/1 2/1/1 3/3/1
v -0.439214 0.773032 -0.901211
v 0.285503 0.809216 -0.901211
v 0.283996 -0.957756 -0.937500
v -0.472402 -0.901392 -0.937500
v -0.464061 0.714540 0.951336
v 0.317136 0.757284 0.948995
v 0.318653 -0.771089 0.997421
v -0.491653 -0.725997 0.997421
v -0.424655 0.174935 1.411315
v 0.314883 0.234236 1.402537
v 0.332440 -0.658526 1.305585
v -0.432305 -0.675772 1.308511
v -0.465309 -0.092680 2.089221
v 0.234621 -0.052741 2.086295
v 0.302728 -0.654578 2.116678
v -0.450920 -0.662142 2.116678
v -0.413177 -0.146966 2.689364
v 0.203048 -0.165932 2.684803
v 0.243816 -0.630800 2.670122
v -0.416161 -0.599838 2.676889
v -0.057916 -1.547061 -0.874882
v -0.632035 -1.313331 -0.874882
v 0.084515 -1.639202 0.933327
v -0.601664 -1.359852 0.933327
v -0.373594 0.655051 -0.502894
v -0.473090 0.615615 0.014496
v -0.550922 0.663000 0.460817
v 0.413744 0.809216 0.481856
v 0.413744 0.809216 -0.000000
v 0.413744 0.809216 -0.481856
v 0.412238 -0.921481 0.500000
v 0.412238 -0.957756 -0.000000
v 0.412238 -0.957756 -0.500000
v -0.488646 -0.710098 0.489926
v -0.476570 -0.741107 0.000000
v -0.435217 -0.821319 -0.500000
v 0.104453 -1.686303 0.500000
v 0.104453 -1.686303 -0.000000
v 0.104453 -1.686303 -0.500000
v -0.648165 -1.351412 0.500000
v -0.648165 -1.351412 -0.000000
v -0.648165 -1.351412 -0.500000
v -0.200392 -1.841755 0.916637
v -0.720384 -1.490711 0.916637
v -0.200392 -1.841755 0.583363
v -0.200392 -1.841755 -0.083363
v -0.200392 -1.841755 -0.416637
v -0.720384 -1.490711 0.583363
v -0.720384 -1.490711 -0.083363
v -0.720384 -1.490711 -0.416637
v -0.296294 -1.716535 -0.860917
v -0.731366 -1.422820 -0.860917
v -0.112039 -1.930463 0.441382
v -0.112039 -1.930463 0.075401
v -0.296294 -1.716535 -0.582070
v -0.683061 -1.544968 0.441382
v -0.683061 -1.544968 0.075401
v -0.731366 -1.422820 -0.582070
v -1.003187 -2.203063 0.912464
v -1.118274 -1.766733 0.912464
v -1.003187 -2.203063 0.587536
v -1.003187 -2.203063 -0.087536
v -1.003187 -2.203063 -0.412464
v -1.118274 -1.766733 0.587536
v -1.118274 -1.766733 -0.087536
v -1.118274 -1.766733 -0.412464
v -0.967984 -2.018837 -0.857426
v -1.064277 -1.653764 -0.857426
v -0.993618 -2.327228 0.436799
v -0.993618 -2.327228 0.079983
v -0.967984 -2.018837 -0.585562
v -1.120000 -1.848078 0.436799
v -1.120000 -1.848078 0.079983
v -1.064277 -1.653764 -0.585562
v -1.610054 -1.729153 0.902299
v -1.397592 -1.413084 0.902299
v -1.610054 -1.729153 0.597701
v -1.610054 -1.729153 -0.097701
v -1.610054 -1.729153 -0.402299
v -1.397592 -1.413084 0.597701
v -1.397592 -1.413084 -0.097701
v -1.397592 -1.413084 -0.402299
v -1.475744 -1.622321 -0.848921
v -1.297979 -1.357870 -0.848921
v -1.660042 -1.806810 0.425636
v -1.660042 -1.806810 0.091147
v -1.475744 -1.622321 -0.594067
v -1.426729 -1.459723 0.425636
v -1.426729 -1.459723 0.091147
v -1.297979 -1.357870 -0.594067
v -1.595798 -0.937718 0.853750
v -1.363527 -0.957832 0.853750
v -1.595798 -0.937718 0.646250
v -1.595798 -0.937718 -0.146250
v -1.595798 -0.937718 -0.353750
v -1.363527 -0.957832 0.646250
v -1.363527 -0.957832 -0.146250
v -1.363527 -0.957832 -0.353750
v -1.463816 -0.960136 -0.808301
v -1.269478 -0.976965 -0.808301
v -1.644386 -0.937706 0.372323
v -1.644386 -0.937706 0.144459
v -1.463816 -0.960136 -0.634687
v -1.389321 -0.959794 0.372323
v -1.389321 -0.959794 0.144459
v -1.269478 -0.976965 -0.634687
v -0.372195 1.326478 -0.698934
v 0.132831 1.471218 -0.698934
v -0.372195 1.326478 0.698934
v 0.132831 1.471218 0.698934
v -0.395095 1.328328 -0.372989
v -0.395095 1.328328 0.000000
v -0.395095 1.328328 0.372989
v 0.150692 1.509252 0.372989
v 0.150692 1.509252 -0.000000
v 0.150692 1.509252 -0.372989
vt 0.144614 0.475345
vt 0.070952 0.466431
vt 0.070952 0.428573
vt 0.128426 0.379666
vt 0.324058 0.377825
vt 0.324058 0.333419
vt 0.324058 0.457398
vt 0.389303 0.422695
vt 0.363426 0.364423
vt 0.308952 0.377825
vt 0.145494 0.377531
vt 0.132432 0.337103
vt 0.132432 0.383994
vt 0.128426 0.457551
vt 0.138908 0.525132
vt 0.298398 0.529809
vt 0.292838 0.561384
vt 0.198651 0.571819
vt 0.291329 0.643411
vt 0.163585 0.529809
vt 0.253299 0.529809
vt 0.254825 0.561087
vt 0.134175 0.524894
vt 0.192085 0.570928
vt 0.290928 0.561087
vt 0.134175 0.460762
vt 0.138908 0.381472
vt 0.198651 0.385472
vt 0.228280 0.640625
vt 0.284431 0.700271
vt 0.251536 0.643411
vt 0.168095 0.643411
vt 0.223858 0.640328
vt 0.290491 0.643411
vt 0.252882 0.570928
vt 0.171003 0.571819
vt 0.166502 0.640625
vt 0.287859 0.453320
vt 0.236390 0.449182
vt 0.234290 0.386637
vt 0.245013 0.699585
vt 0.171943 0.700271
vt 0.236390 0.701075
vt 0.287859 0.699585
vt 0.172274 0.701538
vt 0.240500 0.701075
vt 0.367642 0.362786
vt 0.404720 0.439175
vt 0.431752 0.417202
vt 0.317817 0.333419
vt 0.363426 0.339775
vt 0.367642 0.377825
vt 0.298398 0.378672
vt 0.368576 0.367506
vt 0.399505 0.437152
vt 0.303391 0.529809
vt 0.399505 0.523304
vt 0.404720 0.479322
vt 0.128426 0.477481
vt 0.050920 0.466431
vt 0.128426 0.428573
vt 0.050920 0.428573
vt 0.050920 0.390716
vt 0.320042 0.479322
vt 0.324058 0.428573
vt 0.296638 0.478300
vt 0.149860 0.430045
vt 0.300071 0.428573
vt 0.383065 0.355456
vt 0.375548 0.354341
vt 0.421931 0.408234
vt 0.367642 0.479322
vt 0.367642 0.428573
vt 0.404720 0.377825
vt 0.404720 0.428573
vt 0.137045 0.341192
vt 0.100186 0.341547
vt 0.100186 0.369140
vt 0.413625 0.315071
vt 0.383065 0.386286
vt 0.383065 0.487783
vt 0.383065 0.521610
vt 0.229583 0.428573
vt 0.195832 0.420112
vt 0.195832 0.386286
vt 0.229583 0.479322
vt 0.227376 0.523304
vt 0.195832 0.521610
vt 0.205614 0.473373
vt 0.108009 0.472908
vt 0.108009 0.436692
vt 0.389072 0.359244
vt 0.422631 0.314896
vt 0.389072 0.436226
vt 0.389072 0.473373
vt 0.431752 0.473373
vt 0.408067 0.398500
vt 0.375548 0.341192
vt 0.229583 0.377825
vt 0.185214 0.369495
vt 0.185214 0.341192
vt 0.461933 0.326752
vt 0.409464 0.265157
vt 0.374470 0.286721
vt 0.401117 0.341547
vt 0.368357 0.342410
vt 0.368357 0.368277
vt 0.034226 0.471775
vt 0.034226 0.437825
vt 0.138261 0.386286
vt 0.094208 0.386709
vt 0.094208 0.419689
vt 0.106950 0.419689
vt 0.106950 0.386709
vt 0.475680 0.327724
vt 0.142393 0.473373
vt 0.142393 0.436226
vt 0.094017 0.436692
vt 0.441536 0.330325
vt 0.401117 0.320552
vt 0.110848 0.369140
vt 0.110848 0.341547
vt 0.138261 0.487783
vt 0.094208 0.488207
vt 0.094208 0.521186
vt 0.106950 0.521186
vt 0.106950 0.488207
vt 0.397636 0.368277
vt 0.324321 0.364154
vt 0.324321 0.346533
vt 0.397636 0.278789
vt 0.324321 0.280000
vt 0.326185 0.299724
vt 0.379634 0.437825
vt 0.324283 0.443236
vt 0.324283 0.466363
vt 0.409464 0.520155
vt 0.321839 0.515227
vt 0.321839 0.494166
vt 0.413625 0.488207
vt 0.374470 0.489239
vt 0.374470 0.520155
vt 0.418062 0.260083
vt 0.379634 0.283764
vt 0.039760 0.520155
vt 0.039760 0.489239
vt 0.422631 0.436692
vt 0.379634 0.471775
vt 0.368357 0.296831
vt 0.054630 0.368277
vt 0.054630 0.342410
vt 0.413625 0.419689
vt 0.413625 0.386709
vt 0.374470 0.387741
vt 0.039760 0.418657
vt 0.039760 0.387741
vt 0.067055 0.515227
vt 0.067055 0.494166
vt 0.041339 0.494166
vt 0.067055 0.413729
vt 0.067055 0.392669
vt 0.041339 0.392669
vt 0.077467 0.364154
vt 0.077467 0.346533
vt 0.055951 0.346533
vt 0.064199 0.466363
vt 0.064199 0.443236
vt 0.035959 0.443236
vt 0.324066 0.290179
vt 0.374470 0.418657
vt 0.324066 0.392669
vt 0.409464 0.418657
vt 0.321839 0.413729
vt 0.321839 0.392669
vt 0.324283 0.287561
vt 0.418062 0.471775
vt 0.321838 0.466363
vt 0.321838 0.443236
vt 0.326185 0.346533
vt 0.321839 0.266604
vt 0.324066 0.494166
vt 0.324066 0.515227
vt 0.321838 0.261672
vt 0.234703 0.390716
vt 0.232725 0.357633
vt 0.176811 0.357633
vt 0.176811 0.499514
vt 0.232725 0.499514
vt 0.234703 0.466431
vt 0.234703 0.428573
vt 0.174276 0.428573
vt 0.070952 0.390716
vt 0.071157 0.390797
vt 0.055132 0.442055
vt 0.128426 0.337103
vt 0.055132 0.357633
vt 0.071157 0.499514
vt 0.317817 0.380626
vt 0.170156 0.561384
vt 0.192085 0.460533
vt 0.234290 0.701538
vt 0.243995 0.640328
vt 0.284431 0.386334
vt 0.303391 0.460916
vt 0.055132 0.499514
vt 0.368576 0.523304
vt 0.389303 0.339775
vt 0.137045 0.369495
vt 0.383065 0.420112
vt 0.195832 0.487783
vt 0.205614 0.436226
vt 0.431752 0.436226
vt 0.375548 0.369495
vt 0.211607 0.339775
vt 0.401117 0.369140
vt 0.138261 0.420112
vt 0.094017 0.472908
vt 0.138261 0.521610
vt 0.397636 0.342410
vt 0.409464 0.489239
vt 0.413625 0.521186
vt 0.422631 0.472908
vt 0.041339 0.515227
vt 0.041339 0.413729
vt 0.055951 0.364154
vt 0.035959 0.466363
vt 0.324066 0.413729
vt 0.409464 0.387741
vt 0.418062 0.437825
vt 0.326185 0.364154
vt 0.174276 0.390716
vt 0.174276 0.466431
vt 0.071157 0.357633
vn -0.996155 0.084933 0.020112
vn -0.745262 0.665822 0.035127
vn -0.777795 0.627003 -0.043153
vn 0.971526 0.184942 -0.148076
vn 0.971435 -0.193182 -0.137700
vn 0.611377 -0.162694 -0.774407
vn 0.375958 -0.421522 -0.825159
vn -0.611164 0.264138 -0.746086
vn -0.980224 0.195074 -0.033052
vn -0.999664 0.022614 0.012543
vn -0.726859 0.132664 -0.673818
vn 0.590503 0.196875 -0.782617
vn -0.720939 0.356578 0.594165
vn -0.866329 -0.219550 0.448592
vn -0.690878 -0.712272 0.123661
vn -0.764519 0.514695 0.387982
vn -0.696554 -0.715781 0.049348
vn 0.793451 -0.384320 0.471877
vn 0.755974 -0.646687 0.101474
vn 0.687643 0.381603 0.617664
vn 0.735771 0.535630 0.414380
vn -0.774010 0.612995 0.158422
vn -0.563250 -0.550218 0.616413
vn 0.734184 -0.671834 0.097720
vn 0.645283 0.709281 0.283670
vn 0.570330 -0.566485 0.594775
vn 0.538469 0.540941 0.646046
vn -0.539689 0.555223 0.632801
vn -0.996643 0.078066 0.024354
vn 0.743004 -0.666372 -0.061983
vn 0.406568 -0.685507 -0.603931
vn -0.651509 0.087222 -0.753594
vn -0.996277 0.085910 -0.004730
vn -0.569506 0.173040 0.803522
vn 0.597461 -0.447829 0.665151
vn 0.768670 -0.628498 0.118809
vn 0.975066 0.190313 0.114017
vn 0.441389 0.894803 0.066866
vn 0.983947 0.178320 0.000000
vn 0.431013 0.902310 0.000000
vn 0.444044 0.893094 -0.071871
vn 0.971770 -0.199652 0.125492
vn 0.979064 -0.203314 0.007508
vn -0.993652 0.112278 -0.002289
vn -0.982879 0.058535 -0.174566
vn -0.988342 0.138340 -0.063540
vn -0.624348 0.323374 0.711051
vn 0.630970 -0.737724 -0.239998
vn -0.576281 0.483688 0.658711
vn 0.241981 -0.736747 -0.631336
vn -0.624348 0.323374 -0.711051
vn -0.996155 0.087344 -0.000824
vn -0.470901 0.503830 -0.724113
vn 0.030396 0.429579 -0.902493
vn 0.030396 0.429579 0.902493
vn 0.241981 -0.736747 0.631336
vn -0.479141 0.467666 0.742729
vn 0.322428 -0.650929 0.687216
vn 0.413434 -0.668661 0.618000
vn -0.098910 -0.787988 0.607624
vn -0.098910 -0.787988 -0.607624
vn -0.612384 0.217963 0.759880
vn -0.640370 0.195379 -0.742759
vn 0.234779 -0.646962 -0.725455
vn 0.067232 -0.752190 0.655477
vn -0.714408 -0.324137 -0.620075
vn 0.487472 0.259865 -0.833552
vn 0.487472 0.259865 0.833552
vn -0.714408 -0.324137 0.620075
vn -0.550554 0.623737 0.554765
vn -0.550554 0.623737 -0.554765
vn 0.625355 0.546709 -0.556780
vn 0.625355 0.546709 0.556780
vn 0.402081 0.753319 -0.520371
vn -0.623524 0.609424 -0.489669
vn -0.618061 0.628285 0.472457
vn 0.391064 0.768395 0.506577
vn -0.812006 0.583605 -0.002930
s 1
f 31/5/2 117/6/3 116/7/4
f 34/8/5 37/9/6 7/10/7
f 7/11/7 25/12/8 26/13/9
f 40/14/10 29/15/11 5/16/12
f 5/17/12 6/18/13 7/11/7
f 9/19/14 12/20/15 16/21/16
f 13/22/17 16/21/16 20/23/18
f 12/24/15 11/25/19 15/26/20
f 10/27/21 14/28/22 15/29/20
f 10/30/21 9/31/14 13/32/17
f 17/33/23 20/23/18 24/34/24
f 15/26/20 19/35/25 20/36/18
f 14/28/22 18/37/26 19/38/25
f 14/39/22 13/40/17 17/41/23
f 23/42/27 22/43/28 21/44/29
f 19/35/25 23/45/27 24/46/24
f 18/37/26 22/47/28 23/48/27
f 17/41/23 21/49/29 22/50/28
f 45/51/30 42/52/31 58/53/32
f 8/54/33 26/55/9 46/56/34
f 12/57/15 28/58/35 27/59/36
f 11/60/19 27/61/36 41/62/37
f 10/27/21 32/63/38 118/64/39
f 32/63/38 33/65/40 119/66/41
f 34/8/5 120/67/42 119/66/41
f 10/27/21 11/60/19 35/68/43
f 32/63/38 35/68/43 36/69/44
f 33/65/40 36/69/44 37/9/6
f 9/19/14 31/5/2 38/70/45
f 31/5/2 30/71/46 39/72/47
f 30/71/46 29/15/11 40/14/10
f 42/52/31 45/51/30 53/73/48
f 43/52/49 46/51/34 62/74/50
f 43/52/49 51/75/51 54/73/52
f 12/20/15 38/70/45 44/76/53
f 38/70/45 39/72/47 45/77/30
f 39/72/47 40/14/10 46/56/34
f 7/10/7 37/9/6 43/78/49
f 36/69/44 42/79/31 43/78/49
f 35/68/43 41/62/37 42/79/31
f 56/80/54 72/81/55 78/82/56
f 50/75/57 53/73/48 69/83/56
f 41/52/37 49/75/51 52/73/52
f 45/77/30 46/56/34 54/84/52
f 44/76/53 52/85/52 48/86/58
f 42/87/31 50/88/57 51/89/51
f 41/90/37 27/91/36 47/92/59
f 27/59/36 28/58/35 48/73/58
f 57/93/60 73/94/61 74/95/62
f 57/53/60 60/96/63 76/97/56
f 44/51/53 60/96/63 57/53/60
f 45/77/30 61/98/64 60/99/63
f 42/79/31 41/62/37 57/100/60
f 25/12/8 55/101/65 56/74/54
f 46/56/34 26/55/9 56/102/54
f 43/103/49 59/104/66 55/105/65
f 67/106/62 83/107/67 86/108/68
f 72/109/55 88/110/68 94/111/69
f 73/94/61 89/112/70 90/113/67
f 63/106/61 64/83/56 80/108/69
f 54/114/52 70/115/55 69/116/56
f 50/88/57 66/117/61 67/118/62
f 47/75/59 48/73/58 64/83/56
f 58/53/32 74/119/62 77/97/55
f 60/120/63 61/121/64 77/122/55
f 51/75/51 67/106/62 70/83/55
f 55/101/65 71/123/62 72/124/55
f 49/75/51 65/106/62 68/83/55
f 59/104/66 75/125/61 71/126/62
f 52/127/52 68/128/55 64/129/56
f 47/92/59 63/130/61 65/131/62
f 59/101/66 62/74/50 78/124/56
f 91/132/70 107/133/71 103/134/72
f 87/135/67 103/136/72 104/137/73
f 93/138/68 109/139/73 108/140/74
f 79/141/70 95/142/71 97/143/72
f 65/106/62 81/107/67 84/108/68
f 68/144/55 84/145/68 80/146/69
f 74/119/62 90/147/67 93/148/68
f 63/130/61 79/149/70 81/150/67
f 77/151/55 93/138/68 92/152/69
f 71/123/62 87/135/67 88/153/68
f 75/125/61 91/154/70 87/155/67
f 66/106/61 69/83/56 85/108/69
f 69/156/56 70/157/55 86/158/68
f 75/123/61 78/124/56 94/153/69
f 66/117/61 82/159/70 83/160/67
f 73/119/61 76/97/56 92/148/69
f 96/161/74 100/162/73 97/163/72
f 101/164/74 102/165/73 99/166/72
f 110/167/74 104/168/73 103/169/72
f 108/170/74 109/171/73 106/172/72
f 82/107/70 85/108/69 101/173/74
f 85/174/69 86/158/68 102/175/73
f 91/135/70 94/153/69 110/137/74
f 82/176/70 98/177/71 99/178/72
f 89/147/70 92/148/69 108/179/74
f 79/107/70 80/108/69 96/173/74
f 89/180/70 105/181/71 106/182/72
f 94/111/69 88/110/68 104/183/73
f 83/107/67 99/184/72 102/173/73
f 81/107/67 97/184/72 100/173/73
f 84/145/68 100/185/73 96/186/74
f 90/147/67 106/187/72 109/179/73
f 120/188/42 112/189/75 111/190/76
f 113/191/77 114/192/78 118/193/39
f 118/193/39 119/194/41 116/195/4
f 116/195/4 119/194/41 120/188/42
f 29/15/11 30/71/46 116/7/4
f 5/16/12 29/15/11 115/196/79
f 5/17/12 111/197/76 112/198/75
f 6/199/13 112/200/75 120/67/42
f 9/31/14 10/30/21 114/198/78
f 9/19/14 113/201/77 117/6/3
f 30/71/46 31/5/2 116/7/4
f 6/199/13 34/8/5 7/10/7
f 8/202/33 7/11/7 26/13/9
f 8/54/33 40/14/10 5/16/12
f 8/202/33 5/17/12 7/11/7
f 13/22/17 9/19/14 16/21/16
f 17/33/23 13/22/17 20/23/18
f 16/203/16 12/24/15 15/26/20
f 11/60/19 10/27/21 15/29/20
f 14/204/22 10/30/21 13/32/17
f 21/205/29 17/33/23 24/34/24
f 16/203/16 15/26/20 20/36/18
f 15/29/20 14/28/22 19/38/25
f 18/206/26 14/39/22 17/41/23
f 24/207/24 23/42/27 21/44/29
f 20/36/18 19/35/25 24/46/24
f 19/38/25 18/37/26 23/48/27
f 18/206/26 17/41/23 22/50/28
f 61/96/64 45/51/30 58/53/32
f 40/14/10 8/54/33 46/56/34
f 11/208/19 12/57/15 27/59/36
f 35/68/43 11/60/19 41/62/37
f 114/209/78 10/27/21 118/64/39
f 118/64/39 32/63/38 119/66/41
f 33/65/40 34/8/5 119/66/41
f 32/63/38 10/27/21 35/68/43
f 33/65/40 32/63/38 36/69/44
f 34/8/5 33/65/40 37/9/6
f 12/20/15 9/19/14 38/70/45
f 38/70/45 31/5/2 39/72/47
f 39/72/47 30/71/46 40/14/10
f 50/75/57 42/52/31 53/73/48
f 59/101/66 43/52/49 62/74/50
f 46/51/34 43/52/49 54/73/52
f 28/210/35 12/20/15 44/76/53
f 44/76/53 38/70/45 45/77/30
f 45/77/30 39/72/47 46/56/34
f 25/211/8 7/10/7 43/78/49
f 37/9/6 36/69/44 43/78/49
f 36/69/44 35/68/43 42/79/31
f 62/212/50 56/80/54 78/82/56
f 66/106/61 50/75/57 69/83/56
f 44/51/53 41/52/37 52/73/52
f 53/213/48 45/77/30 54/84/52
f 28/210/35 44/76/53 48/86/58
f 43/103/49 42/87/31 51/89/51
f 49/214/51 41/90/37 47/92/59
f 47/75/59 27/59/36 48/73/58
f 58/215/32 57/93/60 74/95/62
f 73/119/61 57/53/60 76/97/56
f 41/52/37 44/51/53 57/53/60
f 44/76/53 45/77/30 60/99/63
f 58/216/32 42/79/31 57/100/60
f 26/13/9 25/12/8 56/74/54
f 62/217/50 46/56/34 56/102/54
f 25/218/8 43/103/49 55/105/65
f 70/83/55 67/106/62 86/108/68
f 78/219/56 72/109/55 94/111/69
f 74/95/62 73/94/61 90/113/67
f 79/107/70 63/106/61 80/108/69
f 53/220/48 54/114/52 69/116/56
f 51/89/51 50/88/57 67/118/62
f 63/106/61 47/75/59 64/83/56
f 61/96/64 58/53/32 77/97/55
f 76/221/56 60/120/63 77/122/55
f 54/73/52 51/75/51 70/83/55
f 56/74/54 55/101/65 72/124/55
f 52/73/52 49/75/51 68/83/55
f 55/105/65 59/104/66 71/126/62
f 48/222/58 52/127/52 64/129/56
f 49/214/51 47/92/59 65/131/62
f 75/123/61 59/101/66 78/124/56
f 87/223/67 91/132/70 103/134/72
f 88/153/68 87/135/67 104/137/73
f 92/152/69 93/138/68 108/140/74
f 81/224/67 79/141/70 97/143/72
f 68/83/55 65/106/62 84/108/68
f 64/225/56 68/144/55 80/146/69
f 77/97/55 74/119/62 93/148/68
f 65/131/62 63/130/61 81/150/67
f 76/226/56 77/151/55 92/152/69
f 72/124/55 71/123/62 88/153/68
f 71/126/62 75/125/61 87/155/67
f 82/107/70 66/106/61 85/108/69
f 85/174/69 69/156/56 86/158/68
f 91/135/70 75/123/61 94/153/69
f 67/118/62 66/117/61 83/160/67
f 89/147/70 73/119/61 92/148/69
f 95/227/71 96/161/74 97/163/72
f 98/228/71 101/164/74 99/166/72
f 107/229/71 110/167/74 103/169/72
f 105/230/71 108/170/74 106/172/72
f 98/184/71 82/107/70 101/173/74
f 101/231/74 85/174/69 102/175/73
f 107/136/71 91/135/70 110/137/74
f 83/232/67 82/176/70 99/178/72
f 105/187/71 89/147/70 108/179/74
f 95/184/71 79/107/70 96/173/74
f 90/233/67 89/180/70 106/182/72
f 110/234/74 94/111/69 104/183/73
f 86/108/68 83/107/67 102/173/73
f 84/108/68 81/107/67 100/173/73
f 80/146/69 84/145/68 96/186/74
f 93/148/68 90/147/67 109/179/73
f 115/235/79 120/188/42 111/190/76
f 117/236/3 113/191/77 118/193/39
f 117/236/3 118/193/39 116/195/4
f 115/235/79 116/195/4 120/188/42
f 115/196/79 29/15/11 116/7/4
f 111/237/76 5/16/12 115/196/79
f 6/18/13 5/17/12 112/198/75
f 34/8/5 6/199/13 120/67/42
f 113/197/77 9/31/14 114/198/78
f 31/5/2 9/19/14 117/6/3
